<svg id="svg" version="1.1" xmlns="http://www.w3.org/2000/svg" xmlns:xlink="http://www.w3.org/1999/xlink" width="400" height="93.33333333333334" viewBox="0, 0, 400,93.33333333333334"><g id="svgg"><path id="path0" d="M41.391 3.961 C 41.285 4.028,45.501 4.080,50.760 4.076 C 56.019 4.071,60.374 4.015,60.438 3.951 C 60.595 3.794,41.637 3.804,41.391 3.961 M116.942 3.958 C 116.900 4.027,124.801 4.083,134.500 4.083 C 144.199 4.083,152.048 4.028,151.942 3.961 C 151.688 3.799,117.042 3.797,116.942 3.958 M183.942 3.958 C 183.900 4.027,186.113 4.079,188.859 4.074 C 192.009 4.068,193.891 4.126,193.956 4.230 C 194.013 4.322,194.088 7.064,194.124 10.323 C 194.160 13.583,194.216 16.325,194.248 16.417 C 194.281 16.508,194.313 13.817,194.320 10.435 C 194.332 4.766,194.311 4.269,194.042 4.065 C 193.719 3.820,184.091 3.718,183.942 3.958 M238.558 3.961 C 238.452 4.028,247.996 4.083,259.766 4.083 C 271.536 4.083,281.167 4.027,281.167 3.958 C 281.167 3.797,238.812 3.799,238.558 3.961 M63.000 4.165 C 63.000 4.255,63.182 4.315,63.405 4.296 C 63.627 4.278,63.773 4.204,63.728 4.131 C 63.611 3.942,63.000 3.970,63.000 4.165 M116.562 5.833 C 116.562 6.796,116.589 7.190,116.623 6.708 C 116.657 6.227,116.657 5.440,116.623 4.958 C 116.589 4.477,116.562 4.871,116.562 5.833 M77.834 10.250 C 78.063 10.525,78.269 10.781,78.292 10.819 C 78.315 10.858,78.370 10.852,78.415 10.807 C 78.460 10.762,78.254 10.506,77.957 10.238 L 77.418 9.750 77.834 10.250 M78.929 11.375 C 78.976 11.490,79.217 11.727,79.465 11.902 C 79.916 12.220,79.916 12.220,79.427 11.694 C 78.893 11.118,78.800 11.059,78.929 11.375 M179.575 70.513 C 179.542 70.567,179.101 70.703,178.594 70.816 C 178.087 70.930,177.630 71.091,177.579 71.174 C 177.528 71.257,177.208 71.455,176.868 71.615 C 175.577 72.222,172.881 75.425,172.755 76.500 C 172.749 76.546,172.698 76.658,172.641 76.750 C 171.546 78.506,172.118 83.498,173.710 86.083 C 174.342 87.110,176.373 88.866,177.615 89.461 L 178.917 90.083 181.333 90.083 L 183.750 90.083 185.064 89.456 C 187.052 88.507,190.000 85.248,190.000 83.999 C 190.000 83.920,190.087 83.644,190.193 83.386 C 190.299 83.128,190.370 82.792,190.351 82.640 C 190.333 82.487,190.396 82.314,190.492 82.255 C 190.711 82.120,190.727 78.941,190.511 78.539 C 190.425 78.380,190.276 77.900,190.179 77.472 C 190.082 77.044,189.921 76.481,189.823 76.222 C 189.724 75.962,189.648 75.732,189.654 75.709 C 189.674 75.634,188.423 73.892,187.996 73.401 C 187.140 72.415,185.513 71.280,184.333 70.846 C 183.731 70.625,179.681 70.341,179.575 70.513 M130.167 80.333 L 130.167 90.167 132.083 90.167 L 134.000 90.167 134.000 85.917 L 134.000 81.667 138.458 81.667 L 142.917 81.667 142.899 85.917 L 142.881 90.167 144.774 90.167 L 146.667 90.167 146.667 80.333 L 146.667 70.500 144.779 70.500 L 142.891 70.500 142.890 74.458 L 142.889 78.417 138.444 78.461 L 134.000 78.505 134.000 74.503 L 134.000 70.500 132.083 70.500 L 130.167 70.500 130.167 80.333 M219.677 70.776 C 219.179 70.911,218.567 71.167,218.318 71.344 C 218.069 71.522,217.800 71.667,217.720 71.667 C 217.210 71.667,215.798 73.650,215.584 74.667 C 215.517 74.987,215.389 75.340,215.300 75.451 C 215.208 75.565,215.183 76.072,215.242 76.618 C 215.299 77.149,215.362 77.752,215.381 77.958 C 215.401 78.165,215.473 78.333,215.542 78.333 C 215.610 78.333,215.667 78.446,215.667 78.583 C 215.667 78.721,215.817 78.983,216.000 79.167 C 216.183 79.350,216.335 79.556,216.338 79.625 C 216.344 79.807,217.820 80.748,218.500 81.003 C 218.821 81.124,219.158 81.278,219.250 81.346 C 219.342 81.415,219.885 81.567,220.458 81.685 C 221.031 81.803,221.500 81.958,221.500 82.028 C 221.500 82.099,221.620 82.110,221.767 82.054 C 221.914 81.998,222.082 82.022,222.142 82.109 C 222.201 82.195,222.736 82.399,223.330 82.561 C 225.398 83.126,226.344 84.354,225.769 85.729 C 224.980 87.618,219.944 87.262,216.747 85.092 L 216.100 84.653 215.859 85.118 C 215.727 85.374,215.535 85.638,215.434 85.706 C 215.333 85.773,215.295 85.829,215.350 85.831 C 215.405 85.832,215.244 86.265,214.992 86.792 C 214.483 87.855,214.531 88.044,215.417 88.445 C 215.692 88.570,216.029 88.746,216.167 88.838 C 216.463 89.034,217.678 89.550,217.917 89.581 C 218.008 89.593,218.196 89.649,218.333 89.707 C 218.745 89.879,220.315 90.167,220.842 90.167 C 221.112 90.167,221.333 90.223,221.333 90.292 C 221.333 90.682,225.769 90.117,226.892 89.584 C 228.168 88.978,230.205 86.482,229.774 86.052 C 229.717 85.994,229.737 85.865,229.818 85.765 C 230.011 85.530,230.090 83.684,229.927 83.250 C 229.858 83.067,229.759 82.804,229.708 82.667 C 229.656 82.529,229.625 82.362,229.639 82.295 C 229.653 82.228,229.230 81.729,228.699 81.186 C 227.681 80.146,227.301 79.939,225.109 79.232 C 224.362 78.991,223.600 78.735,223.417 78.662 C 223.233 78.589,222.608 78.436,222.028 78.322 C 221.447 78.208,220.885 78.033,220.778 77.933 C 220.671 77.832,220.367 77.638,220.102 77.501 C 218.661 76.756,218.872 74.635,220.454 73.966 C 221.842 73.379,224.811 73.835,226.689 74.923 L 227.628 75.467 227.810 75.108 C 227.911 74.911,228.181 74.450,228.411 74.083 C 228.860 73.369,229.167 72.729,229.167 72.509 C 229.167 72.389,226.849 71.160,226.417 71.051 C 226.325 71.028,225.800 70.896,225.250 70.757 C 223.968 70.434,220.899 70.445,219.677 70.776 M253.333 72.080 L 253.333 73.659 256.542 73.705 L 259.750 73.750 259.793 81.958 L 259.836 90.167 261.668 90.167 L 263.500 90.167 263.500 81.917 L 263.500 73.667 266.667 73.667 L 269.833 73.667 269.833 72.083 L 269.833 70.500 261.583 70.500 L 253.333 70.500 253.333 72.080 M183.417 74.165 C 189.100 76.768,187.341 87.184,181.263 86.918 C 179.992 86.863,178.777 86.456,178.355 85.944 C 178.229 85.791,178.021 85.667,177.892 85.667 C 177.764 85.667,177.587 85.479,177.500 85.250 C 177.413 85.021,177.277 84.833,177.198 84.833 C 176.163 84.833,175.342 78.051,176.292 77.343 C 176.361 77.292,176.567 76.952,176.750 76.587 C 178.015 74.073,180.915 73.019,183.417 74.165 M81.958 79.625 L 41.500 79.667 41.500 80.334 L 41.500 81.000 82.083 81.000 L 122.667 81.000 122.667 80.343 C 122.667 79.982,122.610 79.663,122.542 79.635 C 122.473 79.607,104.210 79.602,81.958 79.625 M277.403 79.653 C 277.365 79.691,277.333 80.010,277.333 80.361 L 277.333 81.000 317.913 81.000 L 358.494 81.000 358.598 80.584 C 358.847 79.592,362.239 79.672,317.992 79.626 C 295.706 79.602,277.441 79.615,277.403 79.653 " stroke="none" fill="#4b4c4c" fill-rule="evenodd"></path><path id="path1" d="M126.520 34.042 L 126.500 34.500 121.777 34.500 L 117.053 34.500 116.944 38.875 C 116.883 41.281,116.834 46.044,116.834 49.458 L 116.833 55.667 134.833 55.667 L 152.833 55.667 152.833 51.417 L 152.833 47.167 139.927 47.167 C 132.828 47.167,126.980 47.103,126.932 47.025 C 126.884 46.947,126.830 44.115,126.813 40.733 C 126.796 37.351,126.728 34.358,126.661 34.083 L 126.539 33.583 126.520 34.042 M75.167 34.675 C 75.167 34.817,75.104 35.005,75.026 35.092 C 74.949 35.179,74.797 35.662,74.689 36.167 C 74.409 37.472,72.636 40.915,71.900 41.583 C 71.799 41.675,71.509 42.031,71.255 42.375 C 70.010 44.062,65.735 46.481,63.876 46.551 C 63.396 46.569,63.002 46.640,63.001 46.708 C 63.001 46.777,62.442 46.833,61.760 46.833 C 61.078 46.833,60.473 46.908,60.417 47.000 C 60.352 47.104,58.672 47.167,55.928 47.167 L 51.542 47.167 51.435 43.292 C 51.376 41.160,51.282 38.310,51.226 36.958 L 51.124 34.500 46.339 34.500 L 41.554 34.500 41.417 43.125 C 41.341 47.869,41.272 52.612,41.264 53.667 L 41.250 55.583 52.833 55.566 C 66.348 55.546,65.500 55.562,65.500 55.320 C 65.500 55.193,65.693 55.166,66.083 55.239 C 66.404 55.299,66.667 55.285,66.667 55.208 C 66.667 55.130,67.135 54.970,67.708 54.852 C 68.281 54.734,68.825 54.576,68.917 54.502 C 69.008 54.427,69.421 54.279,69.833 54.172 C 71.706 53.687,75.725 51.368,77.486 49.757 C 78.498 48.830,79.886 47.358,80.062 47.025 C 80.143 46.874,80.293 46.675,80.396 46.583 C 80.574 46.425,80.916 45.920,81.872 44.404 C 82.394 43.576,83.214 41.821,83.502 40.917 C 83.619 40.550,83.769 40.212,83.835 40.167 C 83.985 40.062,84.667 37.117,84.667 36.571 C 84.667 36.349,84.748 36.167,84.847 36.167 C 84.960 36.167,84.986 35.981,84.917 35.667 C 84.856 35.392,84.872 35.167,84.951 35.167 C 85.030 35.167,85.095 35.019,85.095 34.838 C 85.095 34.519,84.945 34.508,80.131 34.463 C 75.738 34.422,75.166 34.446,75.167 34.675 M184.076 34.479 C 184.042 34.513,184.009 39.295,184.004 45.104 L 183.993 55.667 202.258 55.667 L 220.524 55.667 220.485 51.458 L 220.447 47.250 207.265 47.167 L 194.083 47.083 193.981 42.500 C 193.924 39.979,193.868 37.150,193.856 36.213 L 193.833 34.510 188.986 34.463 C 186.320 34.438,184.111 34.445,184.076 34.479 M316.221 34.496 L 311.358 34.583 310.929 35.216 C 310.693 35.564,310.500 35.886,310.500 35.932 C 310.500 35.978,310.196 36.473,309.825 37.032 C 309.454 37.591,309.031 38.281,308.885 38.566 C 308.739 38.850,308.574 39.121,308.518 39.167 C 308.411 39.255,308.162 39.679,307.346 41.167 C 306.662 42.414,306.270 43.067,306.147 43.167 C 306.091 43.212,305.881 43.550,305.681 43.917 C 304.957 45.244,304.748 45.584,304.625 45.639 C 304.556 45.669,304.500 45.765,304.500 45.851 C 304.500 45.936,304.298 46.324,304.051 46.712 C 303.804 47.099,303.441 47.717,303.243 48.083 C 303.045 48.450,302.516 49.369,302.067 50.125 C 300.694 52.436,300.525 52.727,300.151 53.417 C 299.951 53.783,299.732 54.121,299.663 54.167 C 299.553 54.240,299.000 55.438,299.000 55.604 C 299.000 55.638,308.412 55.667,319.917 55.667 C 331.421 55.667,340.833 55.603,340.833 55.525 C 340.833 55.447,340.610 55.053,340.336 54.650 C 340.063 54.247,339.838 53.828,339.836 53.720 C 339.835 53.612,339.730 53.420,339.603 53.293 C 339.476 53.166,339.211 52.767,339.014 52.406 C 338.817 52.045,338.431 51.375,338.156 50.917 C 337.881 50.458,337.532 49.840,337.380 49.542 C 337.229 49.244,337.044 49.000,336.969 49.000 C 336.894 49.000,336.833 48.898,336.833 48.772 C 336.833 48.647,336.678 48.347,336.488 48.106 C 336.298 47.864,336.204 47.666,336.280 47.664 C 336.355 47.663,336.341 47.606,336.248 47.539 C 336.155 47.472,335.638 46.667,335.100 45.750 C 334.561 44.833,333.992 43.894,333.834 43.663 C 333.676 43.433,333.494 43.077,333.429 42.873 C 333.364 42.669,333.220 42.408,333.109 42.293 C 332.997 42.178,332.400 41.221,331.781 40.167 C 331.162 39.112,330.567 38.100,330.458 37.917 C 330.350 37.733,330.053 37.271,329.798 36.889 C 329.542 36.508,329.333 36.119,329.333 36.026 C 329.333 35.163,328.536 35.351,328.035 36.333 C 327.918 36.563,327.581 37.139,327.286 37.614 C 326.991 38.089,326.495 38.914,326.182 39.447 C 324.909 41.622,324.410 42.419,324.292 42.472 C 324.223 42.503,324.167 42.624,324.167 42.741 C 324.167 42.859,324.014 43.150,323.827 43.387 L 323.486 43.820 323.946 44.535 C 324.199 44.928,324.577 45.462,324.786 45.721 C 325.495 46.598,325.584 46.583,319.678 46.583 L 314.190 46.583 314.705 45.667 C 314.988 45.163,315.294 44.653,315.386 44.535 C 315.477 44.417,315.732 43.967,315.952 43.535 C 316.172 43.103,316.481 42.525,316.639 42.250 C 317.456 40.830,317.910 40.075,317.992 40.000 C 318.042 39.954,318.288 39.504,318.538 39.000 C 318.789 38.496,319.180 37.783,319.409 37.417 C 319.637 37.050,320.055 36.303,320.338 35.756 C 320.620 35.209,320.932 34.665,321.030 34.548 C 321.127 34.430,321.180 34.350,321.145 34.371 C 321.111 34.392,318.895 34.448,316.221 34.496 M255.109 35.875 C 255.050 36.631,255.002 41.394,255.001 46.458 L 255.000 55.667 260.000 55.667 L 265.000 55.667 265.000 45.604 C 265.000 40.070,264.953 35.307,264.896 35.021 L 264.792 34.500 260.004 34.500 L 255.216 34.500 255.109 35.875 M336.428 34.875 C 336.492 35.081,336.595 35.287,336.656 35.333 C 336.717 35.379,336.969 35.829,337.215 36.333 C 337.639 37.198,338.205 38.227,339.095 39.750 C 339.309 40.117,339.619 40.679,339.784 41.000 C 339.949 41.321,340.140 41.608,340.208 41.639 C 340.277 41.669,340.333 41.757,340.333 41.834 C 340.333 41.911,340.719 42.636,341.191 43.445 C 341.663 44.255,342.244 45.268,342.483 45.697 C 342.721 46.126,343.357 47.251,343.896 48.197 C 344.434 49.143,344.991 50.142,345.133 50.417 C 345.274 50.692,345.435 50.954,345.489 51.000 C 345.542 51.046,345.736 51.383,345.918 51.750 C 346.101 52.117,346.292 52.454,346.342 52.500 C 346.393 52.546,346.805 53.248,347.258 54.061 C 347.780 54.998,348.223 55.593,348.468 55.686 C 348.952 55.870,358.500 55.882,358.500 55.699 C 358.500 55.626,358.289 55.232,358.032 54.824 C 357.774 54.417,357.447 53.858,357.304 53.583 C 357.162 53.308,356.679 52.465,356.231 51.709 C 355.467 50.419,355.137 49.848,354.086 48.000 C 353.851 47.587,353.475 46.950,353.251 46.583 C 353.026 46.217,352.529 45.354,352.147 44.667 C 351.764 43.979,351.400 43.379,351.336 43.333 C 351.236 43.261,350.289 41.615,349.250 39.710 C 349.067 39.374,348.857 39.020,348.785 38.924 C 348.424 38.449,347.500 36.910,347.500 36.785 C 347.500 36.707,347.406 36.542,347.292 36.419 C 347.177 36.295,346.858 35.815,346.583 35.350 L 346.083 34.506 341.197 34.503 L 336.311 34.500 336.428 34.875 " stroke="none" fill="#049de8" fill-rule="evenodd"></path><path id="path2" d="M73.251 7.499 C 73.182 7.610,67.779 7.667,57.341 7.667 L 41.536 7.667 41.435 12.792 C 41.380 15.610,41.306 25.604,41.272 35.000 C 41.238 44.396,41.265 50.508,41.332 48.583 C 41.399 46.658,41.464 42.702,41.477 39.792 L 41.500 34.500 46.333 34.500 L 51.167 34.500 51.190 35.458 C 51.371 43.012,51.444 41.064,51.466 28.083 L 51.493 12.917 56.996 12.873 C 60.632 12.844,62.500 12.886,62.500 12.998 C 62.500 13.091,62.706 13.168,62.958 13.169 C 65.551 13.183,71.667 16.578,71.667 18.003 C 71.667 18.093,71.731 18.167,71.809 18.167 C 72.000 18.167,73.001 19.728,73.412 20.667 C 73.593 21.079,73.798 21.458,73.869 21.509 C 73.939 21.560,74.124 22.122,74.279 22.759 C 74.433 23.396,74.633 23.965,74.721 24.025 C 74.810 24.084,74.831 24.266,74.769 24.428 C 74.706 24.591,74.726 24.767,74.813 24.821 C 75.450 25.214,75.480 34.532,74.846 35.000 C 74.784 35.046,74.644 35.481,74.534 35.967 C 74.425 36.453,74.147 37.261,73.918 37.764 C 73.688 38.266,73.500 38.743,73.500 38.824 C 73.500 38.906,73.406 39.010,73.292 39.056 C 73.130 39.122,73.131 39.143,73.299 39.154 C 73.553 39.169,74.433 37.281,74.681 36.185 C 74.777 35.762,74.925 35.286,75.011 35.127 C 75.097 34.968,75.167 34.743,75.167 34.627 C 75.166 34.461,76.218 34.426,80.131 34.463 C 84.945 34.508,85.095 34.519,85.095 34.838 C 85.095 35.019,85.036 35.167,84.964 35.167 C 84.892 35.167,84.833 35.295,84.833 35.452 C 84.833 35.703,84.863 35.708,85.076 35.494 C 85.531 35.035,85.780 27.161,85.370 26.167 C 85.314 26.029,85.255 25.692,85.240 25.417 C 85.225 25.142,85.170 24.804,85.119 24.667 C 85.068 24.529,84.932 23.798,84.816 23.042 C 84.701 22.285,84.536 21.667,84.451 21.667 C 84.365 21.667,84.333 21.520,84.380 21.341 C 84.426 21.162,84.416 20.994,84.357 20.966 C 84.298 20.939,84.086 20.429,83.885 19.833 C 83.684 19.237,83.389 18.450,83.228 18.083 C 83.068 17.717,82.929 17.379,82.920 17.333 C 82.655 16.044,78.761 11.073,77.038 9.825 C 75.799 8.927,74.136 7.833,74.009 7.833 C 73.925 7.833,73.744 7.720,73.606 7.582 C 73.450 7.426,73.315 7.395,73.251 7.499 M184.000 10.750 C 184.000 12.492,183.950 23.181,183.889 34.505 C 183.828 45.829,183.830 55.297,183.893 55.547 L 184.006 56.000 202.160 56.000 C 214.083 56.000,220.349 55.943,220.417 55.833 C 220.485 55.723,214.389 55.667,202.256 55.667 L 183.993 55.667 184.004 45.104 C 184.009 39.295,184.042 34.513,184.076 34.479 C 184.111 34.445,186.318 34.438,188.981 34.463 L 193.824 34.510 193.882 36.797 C 193.915 38.054,193.936 32.058,193.929 23.472 C 193.922 14.886,193.876 7.821,193.827 7.771 C 193.777 7.722,191.546 7.659,188.868 7.632 L 184.000 7.583 184.000 10.750 M327.000 7.696 C 327.000 7.759,326.905 7.909,326.788 8.030 C 326.610 8.215,325.684 9.672,324.954 10.917 C 324.846 11.100,324.597 11.512,324.401 11.833 C 324.204 12.154,323.497 13.354,322.831 14.500 C 321.668 16.499,320.821 17.890,320.546 18.255 C 320.475 18.349,320.267 18.724,320.085 19.088 C 319.902 19.452,319.706 19.787,319.649 19.833 C 319.592 19.879,319.385 20.217,319.190 20.583 C 318.995 20.950,318.651 21.550,318.426 21.917 C 318.201 22.283,317.844 22.921,317.633 23.333 C 317.423 23.746,317.192 24.109,317.121 24.140 C 317.050 24.172,316.881 24.434,316.747 24.724 C 316.397 25.474,315.824 26.399,315.634 26.519 C 315.544 26.575,315.489 26.650,315.510 26.685 C 315.561 26.769,314.824 28.224,314.676 28.333 C 314.614 28.379,314.274 28.942,313.921 29.583 C 313.567 30.225,313.215 30.775,313.138 30.806 C 313.061 30.837,313.040 30.930,313.092 31.014 C 313.144 31.098,313.122 31.167,313.043 31.167 C 312.965 31.167,312.805 31.429,312.689 31.750 C 312.573 32.071,312.413 32.333,312.334 32.333 C 312.254 32.333,312.136 32.502,312.072 32.708 C 312.007 32.915,311.750 33.383,311.500 33.750 C 311.250 34.117,310.993 34.585,310.928 34.792 C 310.864 34.998,310.752 35.167,310.681 35.167 C 310.609 35.167,310.410 35.485,310.238 35.875 C 310.066 36.265,309.886 36.621,309.836 36.667 C 309.592 36.894,308.501 38.830,308.507 39.025 C 308.510 39.149,308.632 39.025,308.777 38.750 C 308.922 38.475,309.369 37.746,309.770 37.130 C 310.172 36.515,310.500 35.974,310.500 35.929 C 310.500 35.885,310.693 35.564,310.929 35.216 L 311.358 34.583 316.238 34.500 L 321.119 34.417 320.762 35.000 C 320.283 35.783,319.980 36.500,320.129 36.498 C 320.195 36.497,320.625 35.818,321.083 34.988 C 321.542 34.158,322.104 33.153,322.333 32.755 C 322.563 32.357,322.892 31.781,323.065 31.474 C 323.238 31.168,323.428 30.879,323.486 30.833 C 323.545 30.787,323.733 30.431,323.905 30.042 C 324.077 29.652,324.285 29.333,324.368 29.333 C 324.452 29.333,324.477 29.265,324.425 29.181 C 324.374 29.097,324.388 29.003,324.457 28.973 C 324.527 28.942,324.733 28.642,324.917 28.307 C 325.759 26.768,326.735 25.076,326.825 25.000 C 326.880 24.954,327.110 24.542,327.337 24.083 C 327.564 23.625,327.796 23.212,327.852 23.167 C 327.908 23.121,328.083 22.831,328.241 22.523 C 328.412 22.189,328.589 22.023,328.679 22.112 C 328.878 22.312,329.966 24.119,330.266 24.750 C 330.397 25.025,330.804 25.738,331.170 26.333 C 331.536 26.929,331.911 27.567,332.003 27.750 C 332.095 27.933,332.358 28.383,332.588 28.750 C 332.818 29.117,333.209 29.829,333.456 30.333 C 333.703 30.837,333.989 31.337,334.093 31.444 C 334.196 31.551,334.377 31.870,334.494 32.152 C 334.611 32.435,334.773 32.667,334.854 32.667 C 334.934 32.667,335.000 32.749,335.000 32.849 C 335.000 32.950,335.155 33.250,335.345 33.516 C 335.534 33.782,335.628 34.001,335.553 34.003 C 335.478 34.004,335.498 34.060,335.598 34.128 C 335.779 34.250,337.134 36.603,337.737 37.842 C 337.913 38.204,338.117 38.500,338.190 38.500 C 338.362 38.500,338.190 38.030,337.826 37.500 C 337.668 37.271,337.366 36.708,337.154 36.250 C 336.942 35.792,336.718 35.379,336.657 35.333 C 336.595 35.287,336.492 35.081,336.428 34.875 L 336.311 34.500 341.197 34.501 L 346.083 34.502 346.413 35.043 C 346.594 35.340,346.873 35.808,347.031 36.083 C 347.190 36.359,347.322 36.469,347.326 36.329 C 347.330 36.189,347.202 35.892,347.042 35.669 C 346.881 35.446,346.600 34.981,346.417 34.636 C 346.013 33.877,344.395 31.051,343.875 30.198 C 343.669 29.860,343.347 29.265,343.159 28.875 C 342.971 28.485,342.761 28.167,342.692 28.167 C 342.623 28.167,342.472 27.904,342.356 27.583 C 342.240 27.262,342.071 27.000,341.979 27.000 C 341.888 27.000,341.856 26.931,341.908 26.848 C 341.960 26.764,341.938 26.670,341.860 26.639 C 341.782 26.608,341.613 26.387,341.484 26.147 C 341.355 25.908,341.036 25.313,340.774 24.827 C 340.513 24.341,340.056 23.562,339.760 23.096 C 338.740 21.494,338.000 20.199,338.000 20.017 C 338.000 19.916,337.936 19.833,337.859 19.833 C 337.781 19.833,337.577 19.515,337.405 19.125 C 337.233 18.735,337.051 18.379,337.000 18.333 C 336.831 18.182,335.667 16.146,335.667 16.002 C 335.667 15.924,335.607 15.836,335.533 15.806 C 335.417 15.757,334.198 13.703,334.017 13.250 C 333.980 13.158,333.900 13.046,333.838 13.000 C 333.776 12.954,333.410 12.354,333.024 11.667 C 332.638 10.979,332.025 9.940,331.661 9.358 C 331.298 8.776,331.000 8.270,331.000 8.233 C 331.000 8.197,330.868 8.035,330.708 7.875 C 330.412 7.580,326.999 7.416,327.000 7.696 M116.943 10.542 C 116.883 12.123,116.851 19.492,116.871 26.917 C 116.892 34.342,116.931 39.085,116.958 37.458 L 117.008 34.500 121.754 34.500 L 126.500 34.500 126.520 34.042 L 126.539 33.583 126.661 34.083 C 126.728 34.358,126.796 37.357,126.813 40.747 C 126.830 44.137,126.902 46.969,126.973 47.040 C 127.044 47.111,132.910 47.149,140.009 47.125 L 152.917 47.081 139.958 47.041 L 127.000 47.000 127.000 40.333 L 127.000 33.667 137.750 33.667 L 148.500 33.667 148.500 29.583 L 148.500 25.500 148.125 25.473 C 147.919 25.458,143.065 25.435,137.338 25.421 L 126.927 25.396 126.861 19.115 L 126.795 12.833 139.314 12.833 L 151.833 12.833 151.833 10.250 L 151.833 7.667 134.443 7.667 L 117.052 7.667 116.943 10.542 M238.608 8.542 C 238.550 9.023,238.502 10.185,238.501 11.125 L 238.500 12.833 246.750 12.833 L 255.000 12.833 255.032 24.625 C 255.049 31.110,255.090 35.985,255.123 35.458 L 255.183 34.500 259.997 34.500 L 264.810 34.500 264.882 34.875 C 264.922 35.081,264.965 30.206,264.977 24.042 L 265.000 12.833 273.192 12.833 L 281.384 12.833 281.276 10.958 C 281.217 9.927,281.168 8.765,281.167 8.375 L 281.167 7.667 259.940 7.667 L 238.713 7.667 238.608 8.542 M328.360 35.369 C 328.250 35.578,327.979 36.050,327.758 36.417 C 327.537 36.783,327.190 37.383,326.989 37.750 C 326.787 38.117,326.574 38.454,326.516 38.500 C 326.418 38.577,326.007 39.367,325.866 39.750 C 325.832 39.842,326.142 39.392,326.555 38.750 C 327.800 36.814,328.167 36.212,328.167 36.105 C 328.167 35.842,328.743 35.373,328.964 35.458 C 329.127 35.520,329.185 35.473,329.134 35.318 C 329.005 34.932,328.573 34.960,328.360 35.369 M329.282 35.958 C 329.339 36.119,329.599 36.546,329.860 36.908 C 330.120 37.270,330.333 37.654,330.333 37.762 C 330.333 37.871,330.451 38.057,330.595 38.176 C 330.891 38.422,330.415 37.259,330.068 36.889 C 329.968 36.782,329.790 36.464,329.673 36.181 C 329.451 35.646,329.098 35.445,329.282 35.958 M84.661 36.625 C 84.657 36.877,84.552 37.515,84.426 38.042 C 84.300 38.569,84.255 39.000,84.327 39.000 C 84.398 39.000,84.547 38.531,84.657 37.958 C 84.767 37.385,84.898 36.748,84.947 36.542 C 84.998 36.325,84.958 36.167,84.851 36.167 C 84.750 36.167,84.664 36.373,84.661 36.625 M319.720 36.875 C 319.011 37.988,318.133 39.688,318.221 39.777 C 318.264 39.819,318.501 39.441,318.748 38.936 C 318.995 38.431,319.247 37.995,319.307 37.967 C 319.438 37.907,320.026 36.667,319.924 36.667 C 319.885 36.667,319.793 36.760,319.720 36.875 M347.501 36.792 C 347.501 36.951,348.138 38.000,348.234 38.000 C 348.274 38.000,348.189 37.700,348.045 37.333 C 347.815 36.749,347.499 36.434,347.501 36.792 M348.531 38.584 C 348.635 38.814,348.753 38.969,348.792 38.930 C 348.910 38.812,348.656 38.167,348.492 38.167 C 348.409 38.167,348.426 38.354,348.531 38.584 M331.040 38.875 C 331.175 39.081,331.528 39.681,331.825 40.208 C 332.643 41.659,332.625 41.356,331.803 39.833 C 331.407 39.100,331.018 38.500,330.939 38.500 C 330.860 38.500,330.905 38.669,331.040 38.875 M338.527 39.083 C 338.782 39.711,339.001 39.980,338.996 39.658 C 338.994 39.525,338.842 39.229,338.658 39.000 L 338.324 38.583 338.527 39.083 M349.003 39.250 C 349.001 39.454,349.627 40.500,349.752 40.500 C 349.801 40.500,349.730 40.294,349.594 40.042 C 349.221 39.353,349.005 39.064,349.003 39.250 M72.865 39.893 C 72.753 40.200,72.513 40.587,72.331 40.752 C 72.149 40.917,72.000 41.163,72.000 41.299 C 72.000 41.435,72.187 41.271,72.415 40.935 C 73.003 40.068,73.365 39.333,73.204 39.333 C 73.129 39.333,72.976 39.585,72.865 39.893 M307.859 39.927 C 307.748 40.171,307.736 40.310,307.831 40.251 C 308.076 40.100,308.370 39.500,308.199 39.500 C 308.119 39.500,307.966 39.692,307.859 39.927 M317.697 40.416 C 317.593 40.646,317.575 40.833,317.659 40.833 C 317.823 40.833,318.077 40.188,317.959 40.070 C 317.920 40.031,317.802 40.186,317.697 40.416 M325.369 40.468 C 325.280 40.726,325.097 41.046,324.963 41.180 C 324.651 41.492,324.333 42.085,324.333 42.354 C 324.333 42.469,324.602 42.118,324.931 41.574 C 325.802 40.132,325.866 40.000,325.689 40.000 C 325.603 40.000,325.459 40.211,325.369 40.468 M83.602 40.568 C 83.547 40.789,83.456 41.089,83.400 41.235 C 83.344 41.381,83.365 41.500,83.448 41.500 C 83.530 41.500,83.678 41.200,83.776 40.833 C 83.874 40.467,83.897 40.167,83.828 40.167 C 83.759 40.167,83.657 40.347,83.602 40.568 M254.862 45.000 C 254.834 47.704,254.775 51.132,254.733 52.618 C 254.624 56.380,254.028 56.000,260.040 56.000 C 263.236 56.000,265.000 55.941,265.000 55.833 C 265.000 55.726,263.223 55.667,260.002 55.667 L 255.003 55.667 254.958 47.875 C 254.922 41.627,254.903 41.057,254.862 45.000 M339.499 40.832 C 339.696 41.217,339.894 41.495,339.941 41.448 C 340.048 41.341,339.560 40.390,339.322 40.243 C 339.223 40.182,339.303 40.447,339.499 40.832 M306.955 41.500 C 306.811 41.867,306.723 42.167,306.760 42.167 C 306.797 42.167,306.980 41.867,307.167 41.500 C 307.354 41.133,307.442 40.833,307.362 40.833 C 307.282 40.833,307.099 41.133,306.955 41.500 M317.132 41.375 C 316.809 41.879,316.650 42.334,316.797 42.332 C 316.863 42.331,317.042 42.031,317.196 41.665 C 317.510 40.918,317.488 40.819,317.132 41.375 M350.352 41.665 C 350.558 42.030,350.748 42.308,350.775 42.281 C 350.864 42.192,350.252 41.011,350.114 41.005 C 350.040 41.002,350.147 41.299,350.352 41.665 M332.697 41.750 C 332.801 41.979,332.948 42.167,333.023 42.167 C 333.098 42.167,333.074 41.979,332.970 41.750 C 332.865 41.521,332.718 41.333,332.643 41.333 C 332.568 41.333,332.593 41.521,332.697 41.750 M340.168 41.857 C 340.167 42.007,340.322 42.307,340.513 42.523 C 340.703 42.740,340.811 42.823,340.753 42.708 C 340.267 41.753,340.169 41.610,340.168 41.857 M71.292 42.013 C 71.131 42.107,71.000 42.268,71.000 42.373 C 71.000 42.477,70.831 42.748,70.625 42.974 C 70.419 43.201,70.338 43.336,70.446 43.275 C 70.639 43.164,71.748 41.828,71.639 41.838 C 71.608 41.841,71.452 41.920,71.292 42.013 M82.932 42.309 C 82.719 42.654,82.515 43.344,82.651 43.260 C 82.733 43.209,82.879 42.942,82.975 42.667 C 83.141 42.189,83.119 42.006,82.932 42.309 M306.197 42.750 C 306.093 42.979,306.062 43.166,306.129 43.165 C 306.195 43.165,306.337 42.977,306.443 42.749 C 306.549 42.520,306.579 42.333,306.511 42.333 C 306.443 42.333,306.301 42.521,306.197 42.750 M316.375 42.708 C 316.066 43.095,315.638 44.038,315.822 43.924 C 315.922 43.862,316.155 43.516,316.339 43.155 C 316.673 42.500,316.688 42.316,316.375 42.708 M351.031 42.917 C 351.135 43.147,351.253 43.303,351.292 43.263 C 351.410 43.146,351.156 42.500,350.992 42.500 C 350.909 42.500,350.926 42.688,351.031 42.917 M333.450 42.958 C 333.607 43.387,334.108 44.003,334.214 43.897 C 334.264 43.847,334.162 43.662,333.986 43.486 C 333.810 43.310,333.667 43.054,333.667 42.917 C 333.667 42.779,333.594 42.667,333.505 42.667 C 333.416 42.667,333.392 42.798,333.450 42.958 M323.692 43.261 C 323.581 43.505,323.569 43.644,323.665 43.585 C 323.909 43.433,324.203 42.833,324.033 42.833 C 323.952 42.833,323.799 43.026,323.692 43.261 M69.667 43.667 C 69.438 43.846,69.332 43.994,69.433 43.996 C 69.533 43.998,69.751 43.850,69.917 43.667 C 70.297 43.247,70.204 43.247,69.667 43.667 M341.117 43.661 C 341.164 43.842,341.319 44.085,341.460 44.203 C 341.678 44.384,341.675 44.333,341.438 43.875 C 341.122 43.263,340.990 43.175,341.117 43.661 M305.377 44.114 C 305.084 44.745,305.254 44.803,305.575 44.182 C 305.722 43.899,305.784 43.667,305.713 43.668 C 305.642 43.669,305.490 43.869,305.377 44.114 M82.064 44.042 C 81.996 44.156,81.823 44.435,81.679 44.660 C 81.516 44.915,81.496 45.022,81.626 44.941 C 81.842 44.808,82.403 43.833,82.264 43.833 C 82.221 43.833,82.131 43.927,82.064 44.042 M351.817 44.083 C 352.098 44.627,352.328 44.928,352.327 44.750 C 352.326 44.658,352.173 44.396,351.985 44.167 C 351.759 43.890,351.702 43.862,351.817 44.083 M323.646 44.366 C 323.721 44.568,323.876 44.764,323.991 44.802 C 324.125 44.847,324.097 44.716,323.914 44.436 C 323.565 43.904,323.466 43.878,323.646 44.366 M334.214 44.292 C 334.537 44.892,335.564 46.500,335.624 46.500 C 335.666 46.500,335.503 46.181,335.261 45.792 C 335.020 45.402,334.742 44.877,334.645 44.625 C 334.547 44.373,334.395 44.167,334.307 44.167 C 334.219 44.167,334.177 44.223,334.214 44.292 M68.310 44.676 C 67.937 45.001,67.936 45.010,68.282 44.842 C 68.484 44.745,68.694 44.590,68.751 44.499 C 68.914 44.234,68.735 44.306,68.310 44.676 M116.705 45.000 C 116.705 45.321,116.740 45.452,116.782 45.292 C 116.823 45.131,116.823 44.869,116.782 44.708 C 116.740 44.548,116.705 44.679,116.705 45.000 M341.928 45.000 C 342.272 45.713,342.334 45.789,342.330 45.486 C 342.328 45.356,342.173 45.063,341.986 44.833 L 341.647 44.417 341.928 45.000 M81.160 45.548 C 80.708 46.228,80.650 46.333,80.730 46.333 C 80.855 46.333,81.545 45.322,81.470 45.248 C 81.434 45.212,81.294 45.347,81.160 45.548 M66.574 45.578 C 66.396 45.713,66.329 45.825,66.426 45.828 C 66.524 45.831,66.749 45.723,66.926 45.589 C 67.104 45.454,67.171 45.342,67.074 45.339 C 66.976 45.336,66.751 45.443,66.574 45.578 M324.464 45.597 C 324.565 45.788,324.777 46.050,324.935 46.180 C 325.195 46.395,325.205 46.385,325.036 46.070 C 324.935 45.879,324.723 45.616,324.565 45.486 C 324.305 45.271,324.295 45.281,324.464 45.597 M352.773 45.828 C 352.934 46.100,353.088 46.301,353.114 46.274 C 353.203 46.185,352.752 45.336,352.616 45.335 C 352.542 45.334,352.613 45.556,352.773 45.828 M116.667 50.604 C 116.604 54.403,116.632 55.670,116.785 55.812 C 117.052 56.062,152.596 56.083,152.750 55.833 C 152.818 55.723,146.808 55.667,134.846 55.667 L 116.838 55.667 116.794 50.625 L 116.750 45.583 116.667 50.604 M314.417 46.167 C 314.274 46.442,314.219 46.667,314.293 46.667 C 314.366 46.667,314.512 46.442,314.616 46.167 C 314.719 45.892,314.775 45.667,314.740 45.667 C 314.704 45.667,314.559 45.892,314.417 46.167 M64.625 46.218 C 64.190 46.312,63.833 46.442,63.833 46.506 C 63.833 46.664,65.013 46.438,65.421 46.201 C 65.801 45.981,65.708 45.983,64.625 46.218 M342.859 46.739 C 342.966 46.974,343.119 47.167,343.199 47.167 C 343.370 47.167,343.076 46.567,342.831 46.415 C 342.736 46.356,342.748 46.495,342.859 46.739 M80.174 46.819 C 80.072 47.010,80.058 47.167,80.143 47.167 C 80.314 47.167,80.551 46.662,80.434 46.545 C 80.394 46.505,80.277 46.628,80.174 46.819 M55.917 47.000 L 51.417 47.092 55.865 47.129 C 58.692 47.153,60.351 47.106,60.417 47.000 C 60.473 46.908,60.496 46.850,60.468 46.871 C 60.440 46.892,58.392 46.950,55.917 47.000 M194.143 47.043 C 194.212 47.112,200.189 47.149,207.426 47.126 L 220.583 47.083 207.300 47.000 C 199.994 46.954,194.073 46.973,194.143 47.043 M302.957 48.283 C 302.578 49.119,302.689 49.148,303.148 48.331 C 303.353 47.966,303.457 47.667,303.379 47.667 C 303.300 47.667,303.110 47.944,302.957 48.283 M77.740 49.542 L 77.250 50.083 77.792 49.594 C 78.090 49.325,78.333 49.081,78.333 49.052 C 78.333 48.923,78.196 49.037,77.740 49.542 M355.068 49.804 C 355.213 50.084,355.413 50.363,355.513 50.424 C 355.612 50.486,355.576 50.308,355.432 50.029 C 355.287 49.750,355.087 49.471,354.987 49.409 C 354.888 49.347,354.924 49.525,355.068 49.804 M73.250 52.667 C 72.975 52.849,72.835 52.998,72.940 52.999 C 73.122 53.000,74.005 52.349,73.833 52.340 C 73.787 52.338,73.525 52.485,73.250 52.667 M71.708 53.415 C 70.992 53.726,71.017 53.848,71.750 53.623 C 72.071 53.525,72.333 53.382,72.333 53.305 C 72.333 53.135,72.365 53.130,71.708 53.415 M357.471 53.938 C 357.840 54.610,358.211 54.975,357.926 54.386 C 357.785 54.093,357.586 53.803,357.485 53.740 C 357.352 53.659,357.349 53.715,357.471 53.938 M69.208 54.339 C 69.002 54.421,68.833 54.519,68.833 54.555 C 68.833 54.678,69.671 54.460,69.762 54.313 C 69.874 54.133,69.700 54.141,69.208 54.339 M41.167 55.792 C 41.167 56.057,62.085 56.101,62.248 55.836 C 62.315 55.729,58.661 55.656,51.758 55.627 C 43.373 55.593,41.167 55.627,41.167 55.792 M348.333 55.870 C 348.333 55.941,349.027 55.990,349.875 55.977 C 351.561 55.952,351.428 55.879,349.542 55.794 C 348.877 55.764,348.333 55.798,348.333 55.870 " stroke="none" fill="#0472b9" fill-rule="evenodd"></path><path id="path3" d="M41.365 4.128 C 41.214 4.179,41.174 6.435,41.198 13.472 C 41.221 20.536,41.256 21.915,41.341 19.250 C 41.403 17.325,41.464 13.931,41.477 11.708 L 41.500 7.667 57.300 7.667 C 69.367 7.667,73.147 7.619,73.300 7.467 C 73.442 7.324,73.500 7.321,73.500 7.455 C 73.500 7.559,73.662 7.695,73.859 7.758 C 74.160 7.854,75.248 8.559,77.061 9.833 C 77.257 9.971,77.556 10.256,77.727 10.467 C 77.898 10.678,78.081 10.808,78.133 10.756 C 78.263 10.626,76.984 9.333,76.724 9.333 C 76.610 9.333,76.453 9.220,76.376 9.082 C 76.299 8.944,75.826 8.572,75.326 8.256 C 74.826 7.940,74.323 7.600,74.208 7.501 C 74.094 7.401,73.999 7.379,73.997 7.452 C 73.996 7.524,73.940 7.504,73.872 7.407 C 73.722 7.190,71.254 6.000,70.956 6.000 C 70.838 6.000,70.591 5.895,70.409 5.767 C 70.226 5.640,69.647 5.435,69.122 5.313 C 68.596 5.191,68.167 5.025,68.167 4.944 C 68.167 4.863,67.979 4.844,67.750 4.902 C 67.521 4.959,67.333 4.941,67.333 4.860 C 67.333 4.702,64.838 4.319,63.701 4.304 C 63.315 4.298,63.000 4.247,63.000 4.189 C 63.000 4.076,41.699 4.017,41.365 4.128 M116.984 4.128 C 116.548 4.215,116.497 7.454,116.538 32.401 C 116.559 45.152,116.615 53.333,116.663 50.583 C 116.711 47.833,116.769 38.496,116.791 29.833 C 116.814 21.171,116.882 12.640,116.941 10.875 L 117.050 7.667 134.441 7.667 L 151.833 7.667 151.833 10.250 L 151.833 12.833 139.333 12.833 L 126.833 12.833 126.873 18.042 L 126.912 23.250 126.958 18.125 L 127.005 13.000 139.586 13.000 L 152.167 13.000 152.167 8.583 C 152.167 6.154,152.110 4.156,152.042 4.144 C 151.771 4.094,117.233 4.078,116.984 4.128 M183.911 4.144 C 183.868 4.187,183.851 9.441,183.874 15.819 L 183.914 27.417 183.958 17.500 L 184.002 7.583 188.870 7.632 C 191.547 7.659,193.777 7.722,193.827 7.771 C 193.876 7.821,193.954 16.649,194.000 27.389 L 194.083 46.917 207.333 46.918 L 220.583 46.920 207.458 46.876 L 194.333 46.831 194.309 32.207 C 194.296 24.164,194.273 17.321,194.259 17.000 C 194.244 16.679,194.201 13.904,194.163 10.833 C 194.125 7.762,194.052 4.987,194.002 4.667 L 193.911 4.083 188.950 4.075 C 186.221 4.070,183.954 4.102,183.911 4.144 M238.542 4.135 L 238.167 4.190 238.167 8.595 L 238.167 13.000 246.458 13.000 L 254.750 13.000 254.742 32.208 C 254.738 42.773,254.780 48.717,254.835 45.417 C 254.890 42.117,254.951 33.435,254.970 26.125 L 255.004 12.833 246.752 12.833 L 238.500 12.833 238.501 11.125 C 238.502 10.185,238.550 9.023,238.608 8.542 L 238.713 7.667 259.940 7.667 L 281.167 7.667 281.167 8.375 C 281.168 8.765,281.217 9.926,281.276 10.957 L 281.384 12.830 273.150 12.875 L 264.917 12.920 273.211 12.960 L 281.505 13.000 281.461 8.542 L 281.417 4.083 260.167 4.082 C 248.479 4.081,238.748 4.105,238.542 4.135 M328.470 4.583 C 328.365 4.813,328.222 5.000,328.151 5.000 C 328.080 5.000,327.970 5.169,327.905 5.375 C 327.840 5.581,327.583 6.050,327.333 6.417 C 327.083 6.783,326.826 7.252,326.762 7.458 C 326.697 7.665,326.586 7.833,326.514 7.833 C 326.443 7.833,326.243 8.152,326.072 8.542 C 325.900 8.931,325.711 9.287,325.653 9.333 C 325.594 9.379,325.405 9.666,325.232 9.970 C 325.058 10.274,324.712 10.874,324.462 11.303 C 324.212 11.732,323.841 12.402,323.637 12.792 C 323.434 13.181,323.207 13.500,323.133 13.500 C 323.060 13.500,323.000 13.596,323.000 13.714 C 323.000 13.917,322.051 15.515,321.667 15.958 C 321.568 16.073,321.532 16.167,321.588 16.167 C 321.644 16.167,321.526 16.396,321.327 16.676 C 321.127 16.957,321.003 17.226,321.052 17.274 C 321.155 17.377,321.230 17.259,322.833 14.500 C 323.498 13.354,324.204 12.154,324.401 11.833 C 324.597 11.512,324.846 11.100,324.954 10.917 C 325.684 9.672,326.610 8.215,326.788 8.030 C 326.905 7.909,327.000 7.759,327.000 7.696 C 326.999 7.416,330.412 7.580,330.708 7.875 C 330.868 8.035,331.000 8.197,331.000 8.233 C 331.000 8.270,331.298 8.776,331.663 9.358 C 332.028 9.940,332.647 10.997,333.038 11.706 C 333.430 12.415,333.805 12.996,333.871 12.998 C 333.999 13.000,333.667 12.143,333.484 12.000 C 333.426 11.954,333.199 11.590,332.981 11.192 C 332.762 10.793,332.396 10.144,332.167 9.750 C 331.938 9.356,331.571 8.707,331.353 8.308 C 331.134 7.910,330.907 7.546,330.848 7.500 C 330.789 7.454,330.600 7.098,330.428 6.708 C 330.257 6.319,330.064 6.000,330.000 6.000 C 329.936 6.000,329.743 5.681,329.570 5.292 C 329.045 4.109,328.767 3.930,328.470 4.583 M78.602 11.255 C 78.754 11.487,78.912 11.644,78.953 11.603 C 79.068 11.487,78.675 10.833,78.490 10.833 C 78.400 10.833,78.450 11.023,78.602 11.255 M79.169 11.727 C 79.168 11.807,79.526 12.294,79.964 12.811 C 80.403 13.327,81.057 14.200,81.417 14.750 C 82.216 15.970,82.391 16.185,82.230 15.750 C 81.902 14.866,79.175 11.282,79.169 11.727 M51.443 12.958 C 51.400 13.027,53.871 13.083,56.933 13.083 C 59.995 13.083,62.500 13.027,62.500 12.958 C 62.500 12.890,60.029 12.833,57.010 12.833 C 53.990 12.833,51.485 12.890,51.443 12.958 M63.167 13.333 C 63.167 13.425,63.373 13.501,63.625 13.502 C 63.877 13.503,64.492 13.613,64.992 13.746 C 65.492 13.879,65.934 13.955,65.974 13.914 C 66.073 13.816,65.783 13.719,64.500 13.422 C 63.206 13.123,63.167 13.120,63.167 13.333 M265.081 34.500 C 265.081 46.279,265.101 51.098,265.125 45.208 C 265.149 39.319,265.149 29.681,265.125 23.792 C 265.101 17.902,265.081 22.721,265.081 34.500 M334.000 13.196 C 334.000 13.240,334.337 13.869,334.750 14.593 C 335.162 15.316,335.500 15.790,335.500 15.644 C 335.500 15.499,335.313 15.104,335.083 14.766 C 334.854 14.428,334.667 14.092,334.667 14.018 C 334.667 13.945,334.517 13.711,334.333 13.500 C 334.150 13.289,334.000 13.152,334.000 13.196 M66.167 14.060 C 66.167 14.105,66.560 14.329,67.042 14.558 C 67.523 14.787,68.254 15.181,68.667 15.435 C 69.094 15.697,69.320 15.777,69.192 15.620 C 68.804 15.142,66.167 13.782,66.167 14.060 M69.500 15.896 C 69.500 16.069,71.522 18.034,71.609 17.947 C 71.653 17.902,71.328 17.499,70.887 17.050 C 70.008 16.158,69.500 15.735,69.500 15.896 M335.667 16.074 C 335.667 16.180,336.356 17.333,336.420 17.333 C 336.449 17.333,336.355 17.033,336.211 16.667 C 335.998 16.122,335.667 15.762,335.667 16.074 M82.583 16.667 C 82.726 16.942,82.874 17.167,82.912 17.167 C 82.951 17.167,82.904 16.942,82.808 16.667 C 82.712 16.392,82.564 16.167,82.479 16.167 C 82.394 16.167,82.441 16.392,82.583 16.667 M320.530 17.917 C 320.426 18.146,320.402 18.333,320.477 18.333 C 320.552 18.333,320.699 18.146,320.803 17.917 C 320.907 17.688,320.932 17.500,320.857 17.500 C 320.782 17.500,320.635 17.688,320.530 17.917 M336.697 17.917 C 336.802 18.147,336.920 18.303,336.959 18.263 C 337.077 18.146,336.823 17.500,336.659 17.500 C 336.575 17.500,336.593 17.688,336.697 17.917 M83.179 17.958 C 83.186 18.027,83.338 18.383,83.516 18.750 C 83.695 19.117,83.797 19.267,83.742 19.083 C 83.688 18.900,83.602 18.544,83.551 18.292 C 83.471 17.898,83.144 17.605,83.179 17.958 M71.980 18.533 C 72.054 18.735,72.209 18.931,72.324 18.969 C 72.458 19.014,72.431 18.883,72.247 18.603 C 71.899 18.070,71.799 18.044,71.980 18.533 M337.169 18.536 C 337.164 18.778,337.733 19.833,337.868 19.833 C 337.946 19.833,337.897 19.627,337.760 19.375 C 337.418 18.742,337.172 18.394,337.169 18.536 M72.853 19.917 C 73.135 20.588,73.406 20.871,73.251 20.333 C 73.185 20.104,73.021 19.804,72.887 19.667 C 72.672 19.447,72.668 19.477,72.853 19.917 M84.055 20.236 C 84.116 20.396,84.167 20.634,84.167 20.764 C 84.167 20.894,84.231 21.000,84.310 21.000 C 84.503 21.000,84.339 20.190,84.118 20.054 C 84.008 19.985,83.985 20.053,84.055 20.236 M338.001 20.113 C 338.001 20.188,338.226 20.587,338.500 21.000 C 339.043 21.818,339.176 21.783,338.708 20.945 C 338.378 20.353,338.000 19.908,338.001 20.113 M318.774 20.937 C 318.377 21.769,318.524 21.812,318.981 20.998 C 319.187 20.632,319.289 20.333,319.208 20.333 C 319.128 20.333,318.932 20.605,318.774 20.937 M73.865 22.042 C 73.964 22.340,74.121 22.658,74.214 22.750 C 74.327 22.862,74.347 22.816,74.274 22.610 C 74.214 22.441,74.120 22.122,74.065 21.901 C 74.009 21.681,73.901 21.500,73.824 21.500 C 73.747 21.500,73.765 21.744,73.865 22.042 M318.024 22.273 C 317.823 22.720,317.828 22.732,318.091 22.475 C 318.245 22.323,318.342 22.109,318.305 21.997 C 318.268 21.886,318.141 22.010,318.024 22.273 M339.352 22.498 C 339.558 22.864,339.748 23.141,339.774 23.115 C 339.868 23.021,339.262 21.833,339.121 21.833 C 339.043 21.833,339.147 22.132,339.352 22.498 M328.249 22.536 L 327.984 23.083 328.310 22.708 C 328.692 22.270,328.833 22.237,328.833 22.583 C 328.833 22.721,328.911 22.833,329.006 22.833 C 329.124 22.833,329.124 22.732,329.005 22.509 C 328.711 21.960,328.525 21.967,328.249 22.536 M84.954 23.875 C 85.002 24.265,85.118 24.658,85.210 24.750 C 85.322 24.862,85.343 24.731,85.272 24.354 C 85.214 24.045,85.167 23.651,85.167 23.479 C 85.167 23.307,85.099 23.167,85.016 23.167 C 84.933 23.167,84.905 23.485,84.954 23.875 M327.667 23.320 C 327.667 23.404,327.616 23.604,327.555 23.764 C 327.485 23.947,327.508 24.015,327.618 23.947 C 327.849 23.804,328.012 23.167,327.818 23.167 C 327.735 23.167,327.667 23.236,327.667 23.320 M317.197 23.749 C 317.093 23.979,317.072 24.167,317.151 24.167 C 317.289 24.167,317.539 23.483,317.437 23.382 C 317.410 23.354,317.302 23.520,317.197 23.749 M329.503 23.550 C 329.498 23.795,330.023 24.699,330.116 24.606 C 330.167 24.555,330.050 24.267,329.857 23.965 C 329.664 23.664,329.504 23.477,329.503 23.550 M316.546 24.875 C 316.221 25.296,316.109 25.555,316.307 25.433 C 316.504 25.311,316.899 24.667,316.776 24.667 C 316.738 24.667,316.635 24.760,316.546 24.875 M340.925 25.182 C 341.071 25.466,341.222 25.666,341.261 25.628 C 341.362 25.527,340.939 24.669,340.787 24.668 C 340.716 24.667,340.778 24.899,340.925 25.182 M85.209 25.464 C 85.214 25.765,85.281 26.051,85.359 26.099 C 85.535 26.208,85.523 25.695,85.339 25.250 C 85.227 24.981,85.202 25.022,85.209 25.464 M148.122 25.451 C 148.494 25.522,148.494 25.529,148.542 29.636 L 148.589 33.750 148.628 29.542 L 148.667 25.333 148.208 25.356 C 147.820 25.375,147.807 25.390,148.122 25.451 M74.833 25.823 C 74.833 26.012,74.908 26.167,75.000 26.167 C 75.092 26.167,75.167 26.059,75.167 25.927 C 75.167 25.794,75.092 25.640,75.000 25.583 C 74.908 25.527,74.833 25.635,74.833 25.823 M325.940 26.505 C 325.779 26.777,325.715 27.000,325.797 27.000 C 325.951 27.000,326.390 26.168,326.289 26.067 C 326.258 26.036,326.101 26.233,325.940 26.505 M325.219 27.708 C 324.924 28.167,324.664 28.719,324.717 28.773 C 324.749 28.804,324.942 28.530,325.148 28.165 C 325.486 27.562,325.542 27.206,325.219 27.708 M85.545 28.333 C 85.545 28.746,85.578 28.915,85.618 28.708 C 85.657 28.502,85.657 28.165,85.618 27.958 C 85.578 27.752,85.545 27.921,85.545 28.333 M332.190 28.394 C 332.308 28.656,332.434 28.780,332.471 28.669 C 332.508 28.558,332.412 28.343,332.257 28.192 C 331.994 27.934,331.990 27.947,332.190 28.394 M313.884 29.333 C 313.781 29.608,313.725 29.833,313.760 29.833 C 313.796 29.833,313.941 29.608,314.083 29.333 C 314.226 29.058,314.281 28.833,314.207 28.833 C 314.134 28.833,313.988 29.058,313.884 29.333 M343.328 29.324 C 343.597 29.826,343.863 29.914,343.641 29.427 C 343.534 29.192,343.381 29.000,343.301 29.000 C 343.221 29.000,343.233 29.146,343.328 29.324 M332.833 29.482 C 332.833 29.563,332.987 29.807,333.175 30.023 L 333.516 30.417 333.254 29.875 C 332.996 29.342,332.833 29.190,332.833 29.482 M85.552 31.750 C 85.553 32.300,85.584 32.505,85.621 32.205 C 85.658 31.906,85.657 31.456,85.619 31.205 C 85.581 30.955,85.551 31.200,85.552 31.750 M322.713 32.042 C 322.405 32.440,322.315 32.667,322.463 32.667 C 322.546 32.667,322.699 32.479,322.803 32.250 C 323.009 31.799,322.970 31.710,322.713 32.042 M311.609 33.278 C 311.439 33.504,311.335 33.724,311.378 33.767 C 311.420 33.809,311.583 33.647,311.741 33.407 C 312.111 32.842,312.009 32.742,311.609 33.278 M345.841 33.681 C 345.943 33.872,346.060 33.995,346.101 33.955 C 346.217 33.838,345.981 33.333,345.810 33.333 C 345.724 33.333,345.739 33.490,345.841 33.681 M74.794 34.208 C 74.724 34.878,74.758 35.143,74.893 34.986 C 75.043 34.813,75.155 33.500,75.019 33.500 C 74.936 33.500,74.835 33.819,74.794 34.208 M321.674 33.819 C 321.572 34.010,321.558 34.167,321.643 34.167 C 321.814 34.167,322.051 33.662,321.934 33.545 C 321.894 33.505,321.777 33.628,321.674 33.819 M346.500 34.815 C 346.500 34.896,346.654 35.140,346.842 35.357 L 347.183 35.750 346.921 35.208 C 346.662 34.675,346.500 34.524,346.500 34.815 M328.097 35.441 C 327.938 35.854,328.113 35.911,328.326 35.514 C 328.428 35.323,328.442 35.167,328.357 35.167 C 328.272 35.167,328.155 35.290,328.097 35.441 M85.100 35.518 C 84.954 35.971,84.893 36.833,85.007 36.833 C 85.071 36.833,85.165 36.516,85.217 36.128 C 85.311 35.428,85.243 35.073,85.100 35.518 M327.375 36.585 C 327.444 36.661,327.376 36.861,327.224 37.029 C 327.071 37.198,326.977 37.365,327.015 37.401 C 327.053 37.438,327.215 37.292,327.375 37.077 C 327.599 36.778,327.619 36.659,327.459 36.567 C 327.344 36.501,327.306 36.509,327.375 36.585 M308.174 39.152 C 308.072 39.344,308.058 39.500,308.143 39.500 C 308.314 39.500,308.551 38.995,308.434 38.879 C 308.394 38.838,308.277 38.961,308.174 39.152 M84.167 39.236 C 84.167 39.366,84.118 39.610,84.059 39.778 C 83.985 39.986,84.006 40.030,84.123 39.917 C 84.390 39.659,84.549 39.000,84.345 39.000 C 84.247 39.000,84.167 39.106,84.167 39.236 M70.206 43.100 C 69.640 43.646,69.630 43.669,70.098 43.358 C 70.630 43.004,71.122 42.500,70.935 42.500 C 70.876 42.500,70.548 42.770,70.206 43.100 M66.005 45.660 C 65.870 45.745,65.800 45.856,65.850 45.906 C 65.900 45.956,66.086 45.887,66.262 45.754 C 66.614 45.488,66.400 45.410,66.005 45.660 M53.718 46.958 C 54.984 46.986,57.009 46.986,58.218 46.958 C 59.427 46.929,58.392 46.906,55.917 46.906 C 53.442 46.906,52.452 46.930,53.718 46.958 M133.471 46.958 C 137.075 46.983,142.925 46.983,146.471 46.958 C 150.016 46.933,147.067 46.913,139.917 46.913 C 132.767 46.913,129.866 46.933,133.471 46.958 M79.290 48.090 C 79.039 48.323,78.833 48.562,78.833 48.621 C 78.833 48.681,79.058 48.513,79.333 48.250 C 79.793 47.810,79.905 47.667,79.790 47.667 C 79.766 47.667,79.541 47.857,79.290 48.090 M77.794 49.588 C 77.452 49.906,77.231 50.167,77.303 50.167 C 77.375 50.167,77.689 49.904,78.000 49.583 C 78.726 48.835,78.601 48.837,77.794 49.588 M353.032 55.958 C 354.013 55.987,355.663 55.987,356.699 55.958 C 357.735 55.929,356.933 55.904,354.917 55.904 C 352.900 55.904,352.052 55.928,353.032 55.958 " stroke="none" fill="#045f96" fill-rule="evenodd"></path><path id="path4" d="M60.781 4.032 C 61.031 4.153,61.448 4.156,62.114 4.042 L 63.083 3.876 61.750 3.866 C 60.701 3.858,60.494 3.893,60.781 4.032 M183.707 29.958 C 183.729 44.327,183.767 51.846,183.790 46.667 C 183.904 21.687,183.905 3.833,183.792 3.833 C 183.723 3.833,183.685 15.590,183.707 29.958 M63.750 4.167 C 63.807 4.258,64.078 4.333,64.353 4.333 C 64.644 4.333,64.810 4.264,64.750 4.167 C 64.693 4.075,64.422 4.000,64.147 4.000 C 63.856 4.000,63.690 4.070,63.750 4.167 M328.030 4.750 C 327.926 4.979,327.868 5.167,327.901 5.167 C 327.934 5.167,328.085 4.979,328.235 4.750 C 328.385 4.521,328.443 4.333,328.364 4.333 C 328.285 4.333,328.135 4.521,328.030 4.750 M68.250 5.000 C 68.307 5.092,68.466 5.167,68.603 5.167 C 68.741 5.167,68.807 5.092,68.750 5.000 C 68.693 4.908,68.534 4.833,68.397 4.833 C 68.259 4.833,68.193 4.908,68.250 5.000 M329.785 5.666 C 329.833 5.850,329.933 6.000,330.008 6.000 C 330.083 6.000,330.194 6.156,330.254 6.346 C 330.314 6.536,330.400 6.656,330.444 6.611 C 330.542 6.514,330.063 5.559,329.850 5.427 C 329.766 5.375,329.737 5.483,329.785 5.666 M70.593 5.745 C 70.771 5.879,70.992 5.989,71.083 5.989 C 71.175 5.989,71.104 5.879,70.926 5.745 C 70.749 5.610,70.528 5.500,70.436 5.500 C 70.345 5.500,70.415 5.610,70.593 5.745 M72.245 6.497 C 72.602 6.679,72.925 6.797,72.962 6.760 C 73.053 6.669,72.075 6.167,71.806 6.167 C 71.691 6.167,71.888 6.316,72.245 6.497 M330.651 7.137 C 330.752 7.327,330.917 7.532,331.018 7.594 C 331.148 7.675,331.148 7.609,331.016 7.363 C 330.914 7.173,330.749 6.968,330.649 6.906 C 330.518 6.825,330.519 6.891,330.651 7.137 M326.347 7.625 L 326.140 8.083 326.487 7.715 C 326.859 7.321,326.916 7.167,326.693 7.167 C 326.616 7.167,326.461 7.373,326.347 7.625 M74.667 7.714 C 74.667 7.745,74.892 7.937,75.167 8.140 C 75.442 8.344,75.667 8.435,75.667 8.343 C 75.667 8.251,75.442 8.059,75.167 7.917 C 74.892 7.774,74.667 7.683,74.667 7.714 M331.333 8.285 C 331.333 8.375,331.483 8.622,331.667 8.833 C 331.850 9.045,332.000 9.162,332.000 9.093 C 332.000 9.025,331.850 8.779,331.667 8.545 C 331.483 8.312,331.333 8.195,331.333 8.285 M76.667 9.165 C 76.987 9.454,77.400 9.765,77.583 9.856 C 77.980 10.054,77.365 9.516,76.583 8.982 C 76.151 8.687,76.163 8.712,76.667 9.165 M324.851 10.255 C 324.631 10.577,324.500 10.889,324.559 10.948 C 324.618 11.007,324.667 10.980,324.667 10.887 C 324.667 10.794,324.817 10.545,325.000 10.333 C 325.284 10.005,325.434 9.664,325.292 9.668 C 325.269 9.668,325.070 9.933,324.851 10.255 M332.522 10.302 C 332.736 10.674,332.937 10.952,332.968 10.921 C 333.056 10.833,332.525 9.868,332.318 9.741 C 332.217 9.678,332.309 9.931,332.522 10.302 M324.213 11.375 C 323.887 11.796,323.776 12.055,323.973 11.933 C 324.171 11.811,324.566 11.167,324.443 11.167 C 324.405 11.167,324.302 11.260,324.213 11.375 M79.833 12.293 C 79.833 12.363,79.985 12.515,80.170 12.630 C 80.483 12.826,80.492 12.816,80.297 12.504 C 80.087 12.168,79.833 12.053,79.833 12.293 M323.275 12.944 C 323.106 13.171,323.002 13.391,323.044 13.433 C 323.087 13.476,323.250 13.314,323.407 13.074 C 323.778 12.509,323.676 12.409,323.275 12.944 M333.833 12.576 C 333.833 12.643,333.983 12.888,334.167 13.121 C 334.350 13.354,334.500 13.490,334.500 13.424 C 334.500 13.357,334.350 13.112,334.167 12.879 C 333.983 12.646,333.833 12.510,333.833 12.576 M53.969 13.125 C 55.372 13.153,57.622 13.153,58.969 13.125 C 60.315 13.097,59.167 13.074,56.417 13.074 C 53.667 13.074,52.565 13.097,53.969 13.125 M127.000 19.167 L 127.000 25.333 137.830 25.333 L 148.661 25.333 148.708 29.542 L 148.756 33.750 148.795 29.458 L 148.833 25.167 138.000 25.167 L 127.167 25.167 127.167 19.168 L 127.167 13.169 139.708 13.125 L 152.250 13.081 139.625 13.041 L 127.000 13.000 127.000 19.167 M242.303 13.125 C 244.624 13.151,248.374 13.151,250.637 13.125 C 252.899 13.099,251.000 13.077,246.417 13.077 C 241.833 13.077,239.982 13.099,242.303 13.125 M265.126 34.484 C 265.103 46.300,265.140 55.933,265.208 55.891 C 265.277 55.848,265.333 46.219,265.333 34.492 L 265.333 13.170 273.458 13.125 L 281.583 13.080 273.376 13.040 L 265.169 13.000 265.126 34.484 M62.250 13.333 C 62.307 13.425,62.536 13.500,62.760 13.500 C 62.984 13.500,63.167 13.425,63.167 13.333 C 63.167 13.242,62.937 13.167,62.657 13.167 C 62.359 13.167,62.190 13.236,62.250 13.333 M335.530 15.583 C 335.635 15.813,335.785 16.000,335.864 16.000 C 335.943 16.000,335.885 15.813,335.735 15.583 C 335.585 15.354,335.434 15.167,335.401 15.167 C 335.368 15.167,335.426 15.354,335.530 15.583 M71.487 18.228 C 71.939 18.718,72.028 18.766,71.908 18.455 C 71.863 18.338,71.660 18.141,71.455 18.016 C 71.101 17.800,71.102 17.810,71.487 18.228 M319.697 19.083 C 319.593 19.313,319.534 19.500,319.568 19.500 C 319.601 19.500,319.751 19.313,319.901 19.083 C 320.051 18.854,320.110 18.667,320.031 18.667 C 319.952 18.667,319.801 18.854,319.697 19.083 M72.197 19.250 C 72.301 19.479,72.452 19.667,72.531 19.667 C 72.610 19.667,72.551 19.479,72.401 19.250 C 72.251 19.021,72.101 18.833,72.068 18.833 C 72.034 18.833,72.093 19.021,72.197 19.250 M318.380 21.375 C 318.032 21.825,317.981 21.997,318.225 21.903 C 318.358 21.852,318.505 21.665,318.551 21.488 C 318.649 21.114,318.604 21.085,318.380 21.375 M328.370 22.670 C 328.174 22.983,328.184 22.992,328.496 22.797 C 328.832 22.587,328.947 22.333,328.707 22.333 C 328.637 22.333,328.485 22.485,328.370 22.670 M329.265 23.583 C 329.415 23.813,329.566 24.000,329.599 24.000 C 329.632 24.000,329.574 23.813,329.470 23.583 C 329.365 23.354,329.215 23.167,329.136 23.167 C 329.057 23.167,329.115 23.354,329.265 23.583 M327.546 24.042 C 327.221 24.463,327.109 24.722,327.307 24.600 C 327.504 24.478,327.899 23.833,327.776 23.833 C 327.738 23.833,327.635 23.927,327.546 24.042 M327.000 24.960 C 327.000 25.061,326.879 25.264,326.730 25.413 C 326.582 25.561,326.501 25.723,326.550 25.772 C 326.600 25.822,326.769 25.666,326.926 25.426 C 327.083 25.186,327.164 24.942,327.106 24.884 C 327.048 24.825,327.000 24.860,327.000 24.960 M315.932 25.583 C 315.782 25.813,315.724 26.000,315.803 26.000 C 315.882 26.000,316.032 25.813,316.136 25.583 C 316.241 25.354,316.299 25.167,316.266 25.167 C 316.232 25.167,316.082 25.354,315.932 25.583 M341.333 25.627 C 341.333 25.818,341.786 26.333,341.954 26.333 C 342.008 26.333,341.910 26.165,341.736 25.958 C 341.562 25.752,341.401 25.552,341.377 25.514 C 341.353 25.476,341.333 25.527,341.333 25.627 M330.500 25.782 C 330.500 25.873,330.650 26.084,330.833 26.250 C 331.017 26.416,331.167 26.514,331.167 26.468 C 331.167 26.422,331.017 26.211,330.833 26.000 C 330.650 25.789,330.500 25.691,330.500 25.782 M85.542 26.583 C 85.544 26.950,85.578 27.080,85.618 26.873 C 85.658 26.666,85.656 26.366,85.615 26.206 C 85.573 26.047,85.540 26.217,85.542 26.583 M74.833 26.480 C 74.833 26.664,74.908 26.860,75.000 26.917 C 75.092 26.973,75.167 26.870,75.167 26.686 C 75.167 26.503,75.092 26.307,75.000 26.250 C 74.908 26.193,74.833 26.297,74.833 26.480 M342.282 27.322 C 342.328 27.499,342.473 27.685,342.604 27.735 C 342.791 27.807,342.805 27.759,342.670 27.506 C 342.428 27.054,342.181 26.937,342.282 27.322 M325.099 28.250 C 324.949 28.479,324.890 28.667,324.969 28.667 C 325.048 28.667,325.199 28.479,325.303 28.250 C 325.407 28.021,325.466 27.833,325.432 27.833 C 325.399 27.833,325.249 28.021,325.099 28.250 M75.230 29.833 C 75.230 30.887,75.257 31.319,75.290 30.792 C 75.323 30.265,75.323 29.402,75.290 28.875 C 75.257 28.348,75.230 28.779,75.230 29.833 M342.833 28.120 C 342.833 28.217,342.988 28.473,343.177 28.690 L 343.520 29.083 343.227 28.583 C 342.842 27.925,342.833 27.915,342.833 28.120 M85.720 29.833 C 85.720 30.429,85.750 30.673,85.787 30.375 C 85.824 30.077,85.824 29.590,85.787 29.292 C 85.750 28.994,85.720 29.238,85.720 29.833 M343.833 29.910 C 343.833 29.976,343.983 30.221,344.167 30.455 C 344.350 30.688,344.500 30.824,344.500 30.757 C 344.500 30.690,344.350 30.445,344.167 30.212 C 343.983 29.979,343.833 29.843,343.833 29.910 M333.006 30.057 C 333.002 30.134,333.150 30.388,333.333 30.621 C 333.517 30.854,333.667 30.968,333.667 30.874 C 333.667 30.666,333.013 29.859,333.006 30.057 M322.719 32.347 C 322.521 32.708,322.429 32.961,322.514 32.908 C 322.699 32.794,323.216 31.827,323.135 31.746 C 323.104 31.715,322.917 31.985,322.719 32.347 M74.958 32.763 C 74.890 32.832,74.833 33.041,74.833 33.228 C 74.833 33.473,74.884 33.516,75.016 33.384 C 75.116 33.284,75.172 33.075,75.141 32.919 C 75.109 32.764,75.027 32.693,74.958 32.763 M85.542 33.250 C 85.544 33.617,85.578 33.747,85.618 33.540 C 85.658 33.332,85.656 33.032,85.615 32.873 C 85.573 32.714,85.540 32.883,85.542 33.250 M127.076 40.250 C 127.076 43.917,127.098 45.393,127.125 43.531 C 127.152 41.668,127.152 38.668,127.125 36.864 C 127.098 35.060,127.076 36.583,127.076 40.250 M310.792 34.412 C 310.393 34.960,310.423 35.140,310.833 34.667 C 311.017 34.455,311.167 34.219,311.167 34.141 C 311.167 33.931,311.112 33.970,310.792 34.412 M346.730 34.903 C 346.970 35.257,347.167 35.624,347.167 35.718 C 347.167 35.812,347.210 35.846,347.262 35.793 C 347.391 35.665,346.925 34.783,346.574 34.492 C 346.419 34.364,346.490 34.549,346.730 34.903 M328.417 34.833 C 328.251 35.017,328.164 35.167,328.224 35.167 C 328.284 35.167,328.483 35.017,328.667 34.833 C 328.850 34.650,328.937 34.500,328.859 34.500 C 328.782 34.500,328.583 34.650,328.417 34.833 M309.189 37.198 C 308.975 37.569,308.883 37.822,308.985 37.759 C 309.191 37.632,309.723 36.667,309.635 36.579 C 309.603 36.548,309.403 36.826,309.189 37.198 M72.860 39.424 C 72.581 40.037,72.634 40.167,72.936 39.610 C 73.077 39.350,73.162 39.106,73.123 39.068 C 73.085 39.030,72.967 39.190,72.860 39.424 M71.125 41.923 C 70.709 42.479,70.763 42.635,71.186 42.097 C 71.379 41.851,71.511 41.623,71.477 41.591 C 71.444 41.559,71.285 41.708,71.125 41.923 M333.552 42.653 C 333.750 43.015,333.937 43.285,333.968 43.254 C 334.049 43.173,333.532 42.206,333.347 42.092 C 333.262 42.039,333.354 42.292,333.552 42.653 M351.506 43.292 C 351.502 43.406,351.564 43.500,351.641 43.500 C 351.719 43.500,351.864 43.669,351.963 43.875 C 352.063 44.081,352.149 44.165,352.155 44.060 C 352.162 43.956,352.019 43.693,351.839 43.477 C 351.659 43.260,351.509 43.177,351.506 43.292 M353.000 45.785 C 353.000 45.875,353.150 46.122,353.333 46.333 C 353.517 46.545,353.667 46.662,353.667 46.593 C 353.667 46.525,353.517 46.279,353.333 46.045 C 353.150 45.812,353.000 45.695,353.000 45.785 M60.500 46.667 C 60.321 46.782,60.495 46.829,61.115 46.831 C 61.591 46.832,62.027 46.758,62.083 46.667 C 62.218 46.450,60.836 46.450,60.500 46.667 M80.208 47.157 C 79.828 47.474,79.731 47.671,79.958 47.661 C 80.027 47.659,80.218 47.471,80.383 47.245 C 80.739 46.756,80.708 46.740,80.208 47.157 M152.906 51.333 C 152.906 53.854,152.930 54.885,152.958 53.625 C 152.986 52.365,152.986 50.302,152.958 49.042 C 152.930 47.781,152.906 48.813,152.906 51.333 M303.380 47.208 C 303.054 47.630,302.943 47.888,303.140 47.766 C 303.337 47.644,303.732 47.000,303.610 47.000 C 303.572 47.000,303.468 47.094,303.380 47.208 M78.495 49.125 L 77.417 50.250 78.542 49.171 C 79.160 48.578,79.667 48.072,79.667 48.046 C 79.667 47.924,79.497 48.080,78.495 49.125 M358.667 55.748 C 358.667 55.960,357.952 56.002,353.625 56.042 L 348.583 56.088 353.708 56.128 C 358.735 56.166,358.833 56.160,358.833 55.833 C 358.833 55.650,358.796 55.500,358.750 55.500 C 358.704 55.500,358.667 55.611,358.667 55.748 M62.333 55.833 C 62.333 55.925,62.591 56.000,62.907 56.000 C 63.222 56.000,63.527 55.925,63.583 55.833 C 63.646 55.733,63.418 55.667,63.010 55.667 C 62.638 55.667,62.333 55.742,62.333 55.833 M298.667 55.833 C 298.667 55.944,305.861 56.000,319.917 56.000 C 333.972 56.000,341.167 55.944,341.167 55.833 C 341.167 55.723,333.972 55.667,319.917 55.667 C 305.861 55.667,298.667 55.723,298.667 55.833 M129.874 80.287 L 129.917 90.417 132.083 90.417 L 134.250 90.417 134.295 86.208 L 134.339 82.000 138.503 82.000 L 142.667 82.000 142.667 86.250 L 142.667 90.500 144.833 90.500 L 147.000 90.500 147.000 80.333 L 147.000 70.167 144.833 70.167 L 142.667 70.167 142.667 74.167 L 142.667 78.167 138.503 78.167 L 134.339 78.167 134.295 74.208 L 134.250 70.250 132.040 70.203 L 129.831 70.157 129.874 80.287 M178.672 70.415 C 178.171 70.536,177.733 70.717,177.700 70.818 C 177.666 70.918,177.544 71.000,177.428 71.000 C 176.385 71.000,173.515 73.812,172.837 75.500 C 172.708 75.821,172.541 76.126,172.465 76.178 C 171.212 77.045,171.860 84.229,173.375 86.250 C 174.120 87.245,174.867 88.063,175.417 88.487 C 175.783 88.770,176.233 89.116,176.416 89.256 C 176.598 89.396,177.030 89.595,177.374 89.699 C 177.718 89.802,178.000 89.943,178.000 90.013 C 178.000 90.247,179.673 90.500,181.230 90.500 C 182.772 90.500,184.667 90.226,184.667 90.003 C 184.667 89.939,184.948 89.802,185.293 89.699 C 186.093 89.459,186.465 89.179,187.885 87.750 C 189.316 86.311,189.386 86.222,189.672 85.500 C 189.799 85.179,189.988 84.829,190.092 84.722 C 190.197 84.615,190.379 84.053,190.498 83.472 C 190.617 82.892,190.778 82.345,190.857 82.258 C 191.044 82.052,191.043 78.713,190.857 78.598 C 190.778 78.549,190.665 78.156,190.606 77.725 C 190.503 76.975,189.546 74.724,189.120 74.231 C 189.008 74.101,188.617 73.636,188.250 73.197 C 186.086 70.608,182.357 69.525,178.672 70.415 M219.506 70.433 C 219.006 70.568,218.556 70.736,218.506 70.807 C 218.457 70.878,218.192 71.028,217.917 71.142 C 216.607 71.681,215.167 73.713,215.167 75.021 C 215.167 75.689,215.433 75.492,215.579 74.716 C 215.771 73.689,217.192 71.667,217.720 71.667 C 217.800 71.667,218.067 71.523,218.314 71.347 C 219.452 70.536,223.132 70.224,225.250 70.757 C 225.800 70.896,226.325 71.028,226.417 71.051 C 226.849 71.160,229.167 72.389,229.167 72.509 C 229.167 72.729,228.860 73.369,228.411 74.083 C 228.181 74.450,227.911 74.911,227.810 75.108 L 227.628 75.467 226.689 74.923 C 225.251 74.090,223.000 73.425,223.000 73.833 C 223.000 73.925,223.210 74.000,223.467 74.000 C 223.723 74.000,224.005 74.066,224.092 74.147 C 224.179 74.227,224.550 74.387,224.917 74.502 C 225.616 74.722,226.891 75.393,227.358 75.789 C 227.644 76.030,228.167 75.559,228.167 75.060 C 228.167 74.951,228.226 74.836,228.299 74.806 C 228.528 74.709,229.500 72.853,229.500 72.512 C 229.500 72.178,229.184 71.955,227.833 71.331 C 227.421 71.141,226.951 70.912,226.790 70.823 C 225.622 70.180,221.308 69.949,219.506 70.433 M253.072 70.385 C 253.025 70.507,253.009 71.352,253.035 72.262 L 253.083 73.917 256.292 73.962 L 259.500 74.007 259.500 82.254 L 259.500 90.500 261.667 90.500 L 263.833 90.500 263.833 82.250 L 263.833 74.000 267.005 74.000 L 270.178 74.000 270.130 72.125 L 270.083 70.250 261.620 70.207 C 254.701 70.171,253.142 70.204,253.072 70.385 M184.333 70.846 C 185.513 71.280,187.140 72.415,187.996 73.401 C 188.423 73.892,189.674 75.634,189.654 75.709 C 189.648 75.732,189.724 75.962,189.823 76.222 C 189.921 76.481,190.082 77.044,190.179 77.472 C 190.276 77.900,190.425 78.380,190.511 78.539 C 190.727 78.941,190.711 82.120,190.492 82.255 C 190.396 82.314,190.333 82.487,190.351 82.640 C 190.370 82.792,190.299 83.128,190.193 83.386 C 190.087 83.644,190.000 83.920,190.000 83.999 C 190.000 85.248,187.052 88.507,185.064 89.456 L 183.750 90.083 181.333 90.083 L 178.917 90.083 177.615 89.461 C 176.373 88.866,174.342 87.110,173.710 86.083 C 172.118 83.498,171.546 78.506,172.641 76.750 C 172.698 76.658,172.749 76.546,172.755 76.500 C 172.881 75.425,175.577 72.222,176.868 71.615 C 177.208 71.455,177.528 71.257,177.579 71.174 C 177.630 71.091,178.087 70.930,178.594 70.816 C 179.101 70.703,179.542 70.567,179.575 70.513 C 179.681 70.341,183.731 70.625,184.333 70.846 M134.000 74.503 L 134.000 78.505 138.444 78.461 L 142.889 78.417 142.890 74.458 L 142.891 70.500 144.779 70.500 L 146.667 70.500 146.667 80.333 L 146.667 90.167 144.774 90.167 L 142.881 90.167 142.899 85.917 L 142.917 81.667 138.458 81.667 L 134.000 81.667 134.000 85.917 L 134.000 90.167 132.083 90.167 L 130.167 90.167 130.167 80.333 L 130.167 70.500 132.083 70.500 L 134.000 70.500 134.000 74.503 M269.833 72.083 L 269.833 73.667 266.667 73.667 L 263.500 73.667 263.500 81.917 L 263.500 90.167 261.668 90.167 L 259.836 90.167 259.793 81.958 L 259.750 73.750 256.542 73.705 L 253.333 73.659 253.333 72.080 L 253.333 70.500 261.583 70.500 L 269.833 70.500 269.833 72.083 M179.417 74.046 C 178.462 74.452,177.237 75.619,176.750 76.587 C 176.567 76.952,176.361 77.292,176.292 77.343 C 175.342 78.051,176.163 84.833,177.198 84.833 C 177.277 84.833,177.413 85.021,177.500 85.250 C 177.587 85.479,177.764 85.667,177.892 85.667 C 178.021 85.667,178.229 85.791,178.355 85.944 C 179.145 86.901,181.926 87.253,183.299 86.569 C 190.024 83.218,186.277 71.133,179.417 74.046 M220.424 73.969 C 218.848 74.765,218.666 76.759,220.102 77.501 C 220.367 77.638,220.671 77.832,220.778 77.933 C 220.885 78.033,221.447 78.208,222.028 78.322 C 222.608 78.436,223.233 78.589,223.417 78.662 C 223.600 78.735,224.362 78.991,225.109 79.232 C 227.301 79.939,227.681 80.146,228.699 81.186 C 229.230 81.729,229.653 82.228,229.639 82.295 C 229.625 82.362,229.663 82.548,229.724 82.708 C 229.784 82.869,229.882 83.131,229.942 83.292 C 230.045 83.565,230.056 83.565,230.123 83.281 C 230.344 82.351,228.299 79.861,227.080 79.576 C 226.807 79.513,226.430 79.365,226.242 79.248 C 226.054 79.131,225.416 78.908,224.825 78.752 C 224.234 78.596,223.600 78.409,223.417 78.336 C 223.233 78.263,222.602 78.079,222.014 77.927 C 219.836 77.363,218.757 75.870,219.808 74.875 C 220.455 74.264,220.847 74.000,221.127 73.988 C 221.762 73.963,222.109 73.707,221.500 73.714 C 221.179 73.718,220.695 73.832,220.424 73.969 M182.667 74.155 C 182.713 74.212,183.062 74.397,183.444 74.565 C 186.328 75.836,187.433 80.734,185.582 84.040 C 184.883 85.289,183.273 86.500,182.313 86.500 C 182.141 86.500,182.000 86.575,182.000 86.667 C 182.000 86.874,181.096 86.886,180.706 86.683 C 180.547 86.600,180.103 86.440,179.719 86.326 C 177.963 85.808,176.386 83.470,176.221 81.143 C 176.122 79.739,176.403 77.333,176.665 77.333 C 176.740 77.333,176.881 77.104,176.978 76.824 C 177.160 76.302,178.875 74.500,179.191 74.500 C 179.287 74.500,179.603 74.392,179.891 74.260 C 180.709 73.886,182.401 73.822,182.667 74.155 M214.863 76.529 C 214.893 76.728,215.001 76.918,215.103 76.952 C 215.221 76.991,215.260 76.857,215.209 76.590 C 215.110 76.076,214.788 76.018,214.863 76.529 M215.172 77.771 C 215.159 79.128,216.818 80.918,218.486 81.346 C 218.952 81.465,219.333 81.617,219.333 81.684 C 219.333 81.750,219.915 81.931,220.625 82.086 C 221.335 82.241,222.038 82.429,222.186 82.504 C 222.335 82.580,222.785 82.730,223.186 82.839 C 225.867 83.560,226.585 86.500,224.080 86.500 C 223.931 86.500,223.698 86.611,223.562 86.748 C 223.343 86.967,223.377 86.984,223.865 86.892 C 226.951 86.312,226.598 83.454,223.330 82.561 C 222.736 82.399,222.201 82.195,222.142 82.109 C 222.082 82.022,221.914 81.998,221.767 82.054 C 221.620 82.110,221.500 82.099,221.500 82.028 C 221.500 81.958,221.031 81.803,220.458 81.685 C 219.885 81.567,219.342 81.415,219.250 81.346 C 219.158 81.278,218.821 81.124,218.500 81.003 C 217.820 80.748,216.344 79.807,216.338 79.625 C 216.335 79.556,216.183 79.350,216.000 79.167 C 215.817 78.983,215.667 78.721,215.667 78.583 C 215.667 78.446,215.594 78.333,215.505 78.333 C 215.416 78.333,215.385 78.225,215.436 78.093 C 215.486 77.962,215.449 77.718,215.352 77.552 C 215.202 77.294,215.176 77.325,215.172 77.771 M41.167 80.417 L 41.167 81.334 82.042 81.292 L 122.917 81.250 122.967 80.375 C 123.004 79.739,122.958 79.500,122.799 79.500 C 122.643 79.500,122.598 79.713,122.641 80.250 L 122.700 81.000 82.100 81.000 L 41.500 81.000 41.500 80.334 L 41.500 79.667 81.958 79.625 L 122.417 79.583 81.792 79.541 L 41.167 79.500 41.167 80.417 M277.000 80.417 L 277.000 81.333 317.917 81.333 L 358.833 81.333 358.833 80.417 L 358.833 79.500 318.208 79.541 L 277.583 79.583 318.047 79.625 C 362.239 79.671,358.847 79.591,358.598 80.584 L 358.494 81.000 317.897 81.000 L 277.300 81.000 277.359 80.250 C 277.401 79.727,277.356 79.500,277.210 79.500 C 277.067 79.500,277.000 79.792,277.000 80.417 M230.000 84.740 C 230.000 85.239,229.924 85.694,229.831 85.752 C 229.737 85.809,229.707 85.930,229.763 86.020 C 230.116 86.593,228.211 88.958,226.892 89.584 C 225.769 90.117,221.333 90.682,221.333 90.292 C 221.333 90.223,221.112 90.167,220.842 90.167 C 220.315 90.167,218.745 89.879,218.333 89.707 C 218.196 89.649,218.008 89.593,217.917 89.581 C 217.678 89.550,216.463 89.034,216.167 88.838 C 216.029 88.746,215.692 88.570,215.417 88.445 C 214.531 88.044,214.483 87.855,214.992 86.792 C 215.244 86.265,215.405 85.832,215.350 85.831 C 215.295 85.829,215.333 85.773,215.434 85.706 C 215.535 85.638,215.727 85.374,215.859 85.118 L 216.100 84.653 216.732 85.082 C 218.027 85.961,220.012 86.717,221.571 86.926 C 222.461 87.046,221.737 86.610,220.690 86.396 C 219.758 86.206,217.826 85.359,216.730 84.659 C 215.993 84.190,215.835 84.316,214.996 86.045 C 214.586 86.891,214.194 87.625,214.125 87.677 C 213.945 87.810,214.818 88.578,215.458 88.851 C 215.756 88.978,216.000 89.128,216.000 89.186 C 216.000 89.243,216.356 89.386,216.792 89.503 C 217.227 89.620,217.908 89.859,218.304 90.035 C 220.223 90.883,225.007 90.804,226.971 89.892 C 227.912 89.455,229.666 87.874,229.668 87.462 C 229.668 87.345,229.774 87.048,229.903 86.802 C 230.214 86.205,230.441 83.833,230.186 83.833 C 230.072 83.833,230.000 84.183,230.000 84.740 " stroke="none" fill="#424242" fill-rule="evenodd"></path></g></svg>